<?xml version="1.0" encoding="utf-8"?>
<!-- Generator: Adobe Illustrator 27.2.0, SVG Export Plug-In . SVG Version: 6.00 Build 0)  -->
<svg version="1.1" id="圖層_1" xmlns="http://www.w3.org/2000/svg" xmlns:xlink="http://www.w3.org/1999/xlink" x="0px" y="0px"
	 viewBox="0 0 270 270" style="enable-background:new 0 0 270 270;" xml:space="preserve">
<style type="text/css">
	.st0{fill:#FFFFFF;}
	.st1{fill:#9C8070;}
</style>
<path class="st0" d="M135,35L135,35c55.2,0,100,44.8,100,100v0c0,55.2-44.8,100-100,100h0c-55.2,0-100-44.8-100-100v0
	C35,79.8,79.8,35,135,35z"/>
<g id="Layer_1">
</g>
<path class="st1" d="M139.4,107.4c-5.3,11.1-13,20.7-23.2,29S97,148.9,89,148.9c-6,0-10.9-2.1-14.8-6.1c-3.9-4-5.6-9.3-5.6-15.8
	c0-15.1,5.8-29.2,17.4-42.2c11.6-12.8,24.1-19.3,37.8-19.3c7,0,14.6,1.9,22.8,6c1.1-5.3,2.6-8.6,4.7-10c2.1-1.4,7.4-2.5,16-3.3
	c-4.2,8.6-8.4,29.2-12.3,61.6l-1.1,8.4c23.5-14.2,41.8-28.6,54.6-43.4l6.8,4.4c-12.1,15.8-32.8,33-62,51.6c-0.2,2.1-0.4,3.7-0.4,4.7
	c-0.9,13.9-2.3,23.9-4.4,30.6c-2.1,6.5-5.8,12.8-11.2,18.6c-10.7,11.4-23.7,17.2-39,17.2c-8.3,0-14.8-1.9-20-5.8
	c-5.1-3.9-7.7-9-7.7-15.1c0-6,2.3-11.2,6.7-15.8s12.8-10,24.9-16.5c8.1-4.2,19.5-10.5,34.2-19L139.4,107.4z M143.6,86
	c-7.2-7.6-14.9-11.4-23.5-11.4c-8.1,0-15.8,5.1-23,15.3c-7.2,10.2-10.7,21.1-10.7,32.5c0,8.1,3,12.1,9,12.1
	c5.8,0,13.5-4.9,23.2-14.6C128.1,110.4,136.6,99,143.6,86z M135.7,150.8c-3.2,1.9-9.7,5.6-19.3,11.1c-19,10.7-28.5,20.2-28.5,28.3
	c0,3.7,1.6,6.7,4.6,9c3.2,2.3,7,3.5,11.8,3.5C125.3,202.6,135.7,185.4,135.7,150.8z"/>
</svg>
